<svg width="64" height="64" viewBox="0 0 64 64" fill="none" xmlns="http://www.w3.org/2000/svg">
<rect width="64" height="64" rx="10" fill="#F4DF20"/>
<path d="M29.16 44.18V27.29L24.96 44H22.26L17.73 27.23V43.82L14.1 44V21.71L20.55 21.53L24.27 35.45L27.84 22.04L33.72 21.68V43.82L29.16 44.18ZM43.8584 44.42C42.0384 44.42 40.4984 43.92 39.2384 42.92C37.9984 41.9 37.0884 40.54 36.5084 38.84L40.2284 37.1L40.5884 37.7C41.1684 38.7 41.7184 39.48 42.2384 40.04C42.7784 40.6 43.4484 40.88 44.2484 40.88C44.7684 40.88 45.2284 40.63 45.6284 40.13C46.0484 39.63 46.2584 39.08 46.2584 38.48C46.2584 37.92 46.1184 37.41 45.8384 36.95C45.5584 36.49 45.1984 36.12 44.7584 35.84L40.8284 33.5C39.6884 32.86 38.7784 32.05 38.0984 31.07C37.4184 30.09 37.0784 28.99 37.0784 27.77C37.0784 26.47 37.3784 25.31 37.9784 24.29C38.5984 23.27 39.4284 22.48 40.4684 21.92C41.5284 21.36 42.7184 21.08 44.0384 21.08C45.5784 21.08 46.8884 21.46 47.9684 22.22C49.0484 22.98 49.8484 24.11 50.3684 25.61L46.6484 27.29C46.5684 27.13 46.3984 26.77 46.1384 26.21C45.8784 25.65 45.5584 25.25 45.1784 25.01C44.8184 24.75 44.3684 24.62 43.8284 24.62C43.1684 24.62 42.6584 24.83 42.2984 25.25C41.9584 25.67 41.7884 26.21 41.7884 26.87C41.7884 27.35 41.9184 27.79 42.1784 28.19C42.4584 28.57 42.7884 28.87 43.1684 29.09L46.7984 31.22C49.4784 32.74 50.8884 34.74 51.0284 37.22C51.0284 38.64 50.7084 39.9 50.0684 41C49.4484 42.08 48.5884 42.92 47.4884 43.52C46.4084 44.12 45.1984 44.42 43.8584 44.42Z" fill="black"/>
</svg>
